<svg width="500" height="500" viewBox="0 0 500 500" fill="none" xmlns="http://www.w3.org/2000/svg">
<circle cx="250" cy="250" r="250" fill="#C68642"/>
<ellipse cx="175" cy="72.5" rx="22" ry="28.5" fill="#5D3A1A"/>
<ellipse cx="102" cy="132.5" rx="20" ry="21.5" fill="#5D3A1A"/>
<circle cx="450.5" cy="177.5" r="18.5" fill="#5D3A1A"/>
<ellipse cx="301.502" cy="195.502" rx="25.8794" ry="21.5" transform="rotate(-45 301.502 195.502)" fill="#5D3A1A"/>
<ellipse cx="398.638" cy="302.638" rx="36.4457" ry="37.9955" transform="rotate(-45 398.638 302.638)" fill="#5D3A1A"/>
<ellipse cx="191" cy="353.771" rx="26.0011" ry="27.7391" transform="rotate(-45 191 353.771)" fill="#5D3A1A"/>
<ellipse cx="330.72" cy="436.023" rx="22.8608" ry="17.8437" transform="rotate(150 330.72 436.023)" fill="#5D3A1A"/>
<ellipse cx="59" cy="291.5" rx="23" ry="24.5" fill="#5D3A1A"/>
<ellipse cx="185.087" cy="219.985" rx="25.8794" ry="21.5" transform="rotate(-96 185.087 219.985)" fill="#5D3A1A"/>
<ellipse cx="359.158" cy="100.557" rx="36.5" ry="18.5" transform="rotate(-10 359.158 100.557)" fill="#5D3A1A"/>
</svg>
